<?xml version="1.0" encoding="UTF-8" standalone="no"?>
<svg width="75px" height="32px" viewBox="0 0 75 25" version="1.1" xmlns="http://www.w3.org/2000/svg" xmlns:xlink="http://www.w3.org/1999/xlink" xmlns:sketch="http://www.bohemiancoding.com/sketch/ns">
    <!-- Generator: Sketch 3.3.3 (12081) - http://www.bohemiancoding.com/sketch -->
    <title>Slice 1</title>
    <desc>Created with Sketch.</desc>
    <defs></defs>
    <g id="Page-1" stroke="none" stroke-width="1" fill="none" fill-rule="evenodd" sketch:type="MSPage">
        <g id="Group" sketch:type="MSLayerGroup">
            <path d="M30.394,0.13454382 L3.496,0.13454382 C1.746,0.13454382 0.322,1.48654382 0.322,3.14654382 L0.322,21.0055438 C0.322,22.6655438 1.746,24.0175438 3.496,24.0175438 L30.394,24.0175438 C32.144,24.0175438 33.568,22.6655438 33.568,21.0055438 L33.568,3.14654382 C33.568,1.48654382 32.144,0.13454382 30.394,0.13454382 L30.394,0.13454382 Z M16.945,19.0915438 C13.071,19.0915438 9.93,15.9505438 9.93,12.0765438 C9.93,8.20154382 13.071,5.06054382 16.945,5.06054382 C20.819,5.06054382 23.96,8.20154382 23.96,12.0765438 C23.96,15.9505438 20.819,19.0915438 16.945,19.0915438 L16.945,19.0915438 Z" id="Fill-1" fill="#A92529" sketch:type="MSShapeGroup"></path>
            <path d="M16.945,7.51654382 C14.427,7.51654382 12.385,9.55754382 12.385,12.0765438 C12.385,14.5945438 14.427,16.6355438 16.945,16.6355438 C19.463,16.6355438 21.505,14.5945438 21.505,12.0765438 C21.505,9.55754382 19.463,7.51654382 16.945,7.51654382 L16.945,7.51654382 Z M16.945,14.3565438 C15.686,14.3565438 14.665,13.3345438 14.665,12.0765438 C14.665,10.8175438 15.686,9.79654382 16.945,9.79654382 C18.204,9.79654382 19.225,10.8175438 19.225,12.0765438 C19.225,13.3345438 18.204,14.3565438 16.945,14.3565438 L16.945,14.3565438 Z" id="Fill-2" fill="#A92529" sketch:type="MSShapeGroup"></path>
            <path d="M71.028,0.13454382 L44.13,0.13454382 C42.38,0.13454382 40.956,1.48654382 40.956,3.14654382 L40.956,21.0055438 C40.956,22.6655438 42.38,24.0175438 44.13,24.0175438 L71.028,24.0175438 C72.779,24.0175438 74.202,22.6655438 74.202,21.0055438 L74.202,3.14654382 C74.202,1.48654382 72.779,0.13454382 71.028,0.13454382 L71.028,0.13454382 Z M72.158,13.9325438 L72.158,21.0055438 C72.158,21.5965438 71.651,22.0775438 71.028,22.0775438 L44.13,22.0775438 C43.507,22.0775438 43,21.5965438 43,21.0055438 L43,3.14654382 C43,2.55554382 43.507,2.07454382 44.13,2.07454382 L71.028,2.07454382 C71.651,2.07454382 72.158,2.55554382 72.158,3.14654382 L72.158,12.7935438 L72.158,13.9325438 Z" id="Fill-1" fill="#161717" sketch:type="MSShapeGroup"></path>
            <path d="M42.483,12.7935438 L72.676,12.7935438 L72.676,14.7335438 L42.483,14.7335438 L42.483,12.7935438 Z" id="Fill-2" fill="#161717" sketch:type="MSShapeGroup"></path>
            <path d="M56.609,1.24854382 L58.549,1.24854382 L58.549,22.9045438 L56.609,22.9045438 L56.609,1.24854382 Z" id="Fill-3" fill="#161717" sketch:type="MSShapeGroup"></path>
            <path d="M63.382,19.4155438 C63.126,19.4155438 62.87,19.3175438 62.675,19.1225438 L58.825,15.2725438 C58.434,14.8815438 58.434,14.2485438 58.825,13.8585438 C59.215,13.4675438 59.848,13.4675438 60.239,13.8585438 L64.089,17.7085438 C64.48,18.0985438 64.48,18.7315438 64.089,19.1225438 C63.894,19.3175438 63.638,19.4155438 63.382,19.4155438" id="Fill-4" fill="#161717" sketch:type="MSShapeGroup"></path>
            <path d="M51.776,19.4155438 C51.521,19.4155438 51.265,19.3175438 51.069,19.1225438 C50.679,18.7315438 50.679,18.0985438 51.069,17.7085438 L54.919,13.8585438 C55.31,13.4675438 55.943,13.4675438 56.334,13.8585438 C56.724,14.2485438 56.724,14.8815438 56.334,15.2725438 L52.483,19.1225438 C52.288,19.3175438 52.032,19.4155438 51.776,19.4155438" id="Fill-5" fill="#161717" sketch:type="MSShapeGroup"></path>
            <path d="M54.642,14.4195438 C52.981,14.4195438 50.692,13.2875438 49.677,12.2725438 C48.969,11.5645438 48.579,10.6235438 48.579,9.62154382 C48.579,8.62054382 48.969,7.67954382 49.677,6.97154382 C51.093,5.55554382 53.562,5.55554382 54.978,6.97154382 C55.652,7.64554382 56.353,8.84854382 56.762,10.0365438 C57.335,11.6985438 57.231,12.9845438 56.46,13.7545438 C56.157,14.0585438 55.595,14.4195438 54.642,14.4195438 L54.642,14.4195438 Z M52.328,7.87354382 C51.861,7.87354382 51.421,8.05554382 51.091,8.38554382 C50.761,8.71654382 50.579,9.15554382 50.579,9.62154382 C50.579,10.0885438 50.761,10.5275438 51.091,10.8585438 C51.78,11.5465438 53.589,12.4195438 54.642,12.4195438 C54.908,12.4195438 55.024,12.3625438 55.046,12.3405438 C55.105,12.2825438 55.257,11.8055438 54.872,10.6895438 C54.527,9.69154382 53.953,8.77454382 53.564,8.38554382 C53.234,8.05554382 52.794,7.87354382 52.328,7.87354382 L52.328,7.87354382 Z" id="Fill-6" fill="#161717" sketch:type="MSShapeGroup"></path>
            <path d="M60.517,14.4195438 C59.564,14.4195438 59.002,14.0585438 58.698,13.7545438 C57.927,12.9845438 57.823,11.6985438 58.396,10.0365438 C58.806,8.84854382 59.506,7.64554382 60.18,6.97154382 C61.596,5.55554382 64.065,5.55554382 65.481,6.97154382 C66.189,7.67954382 66.579,8.62054382 66.579,9.62154382 C66.579,10.6235438 66.189,11.5645438 65.481,12.2725438 C64.466,13.2875438 62.177,14.4195438 60.517,14.4195438 L60.517,14.4195438 Z M62.831,7.87354382 C62.364,7.87354382 61.924,8.05554382 61.594,8.38554382 C61.205,8.77454382 60.631,9.69154382 60.287,10.6895438 C59.901,11.8055438 60.054,12.2825438 60.112,12.3405438 C60.134,12.3625438 60.25,12.4195438 60.517,12.4195438 C61.569,12.4195438 63.378,11.5465438 64.067,10.8585438 C64.398,10.5275438 64.579,10.0885438 64.579,9.62154382 C64.579,9.15554382 64.398,8.71654382 64.067,8.38554382 C63.737,8.05554382 63.297,7.87354382 62.831,7.87354382 L62.831,7.87354382 Z" id="Fill-7" fill="#161717" sketch:type="MSShapeGroup"></path>
        </g>
    </g>
</svg>
