<?xml version="1.0" encoding="UTF-8" standalone="no"?>
<svg width="147px" height="32px" viewBox="0 0 147 25" version="1.1" xmlns="http://www.w3.org/2000/svg" xmlns:xlink="http://www.w3.org/1999/xlink" xmlns:sketch="http://www.bohemiancoding.com/sketch/ns">
    <!-- Generator: Sketch 3.3.3 (12081) - http://www.bohemiancoding.com/sketch -->
    <title>Slice 1</title>
    <desc>Created with Sketch.</desc>
    <defs>
        <radialGradient cx="17.5409177%" cy="17.466056%" fx="17.5409177%" fy="17.466056%" r="93.2873442%" id="radialGradient-1">
            <stop stop-color="#9DD5F6" offset="0%"></stop>
            <stop stop-color="#98D3F5" offset="7.11%"></stop>
            <stop stop-color="#89CEF3" offset="15.75%"></stop>
            <stop stop-color="#70C6EF" offset="25.16%"></stop>
            <stop stop-color="#4EBBEA" offset="35.14%"></stop>
            <stop stop-color="#23ADE3" offset="45.46%"></stop>
            <stop stop-color="#0DA6E0" offset="50%"></stop>
            <stop stop-color="#2E77BC" offset="100%"></stop>
        </radialGradient>
        <linearGradient x1="5.38792764%" y1="30.2297189%" x2="101.016978%" y2="27.5197983%" id="linearGradient-2">
            <stop stop-color="#191E5F" offset="0%"></stop>
            <stop stop-color="#142787" stop-opacity="0.81847638" offset="100%"></stop>
        </linearGradient>
        <linearGradient x1="-233.561345%" y1="26.0579142%" x2="372.942089%" y2="23.566186%" id="linearGradient-3">
            <stop stop-color="#191E5F" offset="0%"></stop>
            <stop stop-color="#142787" stop-opacity="0.81847638" offset="100%"></stop>
        </linearGradient>
        <linearGradient x1="-182.480656%" y1="27.757481%" x2="225.539475%" y2="24.7591497%" id="linearGradient-4">
            <stop stop-color="#191E5F" offset="0%"></stop>
            <stop stop-color="#142787" stop-opacity="0.81847638" offset="100%"></stop>
        </linearGradient>
        <linearGradient x1="-230.001776%" y1="26.8355482%" x2="110.95411%" y2="23.7386403%" id="linearGradient-5">
            <stop stop-color="#191E5F" offset="0%"></stop>
            <stop stop-color="#142787" stop-opacity="0.81847638" offset="100%"></stop>
        </linearGradient>
        <linearGradient x1="-13.8590832%" y1="26.0263464%" x2="265.570846%" y2="23.5306406%" id="linearGradient-6">
            <stop stop-color="#191E5F" offset="0%"></stop>
            <stop stop-color="#142787" stop-opacity="0.81847638" offset="100%"></stop>
        </linearGradient>
        <linearGradient x1="22.8622583%" y1="47.8833041%" x2="428.639062%" y2="43.3025975%" id="linearGradient-7">
            <stop stop-color="#191E5F" offset="0%"></stop>
            <stop stop-color="#142787" stop-opacity="0.81847638" offset="100%"></stop>
        </linearGradient>
        <linearGradient x1="-156.381695%" y1="335.86403%" x2="3998.32009%" y2="267.356977%" id="linearGradient-8">
            <stop stop-color="#191E5F" offset="0%"></stop>
            <stop stop-color="#142787" stop-opacity="0.81847638" offset="100%"></stop>
        </linearGradient>
    </defs>
    <g id="Page-1" stroke="none" stroke-width="1" fill="none" fill-rule="evenodd" sketch:type="MSPage">
        <g id="American_Express_logo" sketch:type="MSLayerGroup" transform="translate(90.000000, 0.000000)">
            <path d="M24.7880702,0.0526408451 L0.0560526316,0.0526408451 L0.0560526316,24.9616197 L24.7880702,24.9616197 L24.7880702,16.7410211 C24.8863158,16.5985035 24.9348246,16.4161972 24.9348246,16.1933099 C24.9348246,15.9382042 24.8863158,15.7801937 24.7880702,15.6470951" id="Shape" fill="url(#radialGradient-1)" sketch:type="MSShapeGroup"></path>
            <path d="M2.28535088,10.831162 L1.8095614,9.66769366 L1.33649123,10.831162 L2.28535088,10.831162 Z M12.7669298,10.3678697 C12.6714035,10.4260563 12.5584211,10.427993 12.4230702,10.427993 L11.5785965,10.427993 L11.5785965,9.77975352 L12.4345614,9.77975352 C12.5557018,9.77975352 12.6821053,9.78521127 12.7642105,9.83239437 C12.854386,9.87491197 12.9101754,9.96540493 12.9101754,10.0904049 C12.9101754,10.2179577 12.8571053,10.3205986 12.7669298,10.3678697 L12.7669298,10.3678697 Z M18.7913158,10.831162 L18.3102632,9.66769366 L17.8318421,10.831162 L18.7913158,10.831162 L18.7913158,10.831162 Z M7.56149123,12.090493 L6.84885965,12.090493 L6.84622807,9.80475352 L5.83824561,12.090493 L5.22789474,12.090493 L4.2172807,9.80272887 L4.2172807,12.090493 L2.80342105,12.090493 L2.53631579,11.4395246 L1.08894737,11.4395246 L0.819122807,12.090493 L0.064122807,12.090493 L1.30894737,9.17200704 L2.34175439,9.17200704 L3.52403509,11.9352113 L3.52403509,9.17200704 L4.65859649,9.17200704 L5.56833333,11.1518486 L6.40403509,9.17200704 L7.56140351,9.17200704 L7.56140351,12.090493 L7.56149123,12.090493 Z M10.4017544,12.090493 L8.0795614,12.090493 L8.0795614,9.17200704 L10.4017544,9.17200704 L10.4017544,9.77975352 L8.77473684,9.77975352 L8.77473684,10.3058099 L10.3627193,10.3058099 L10.3627193,10.9040493 L8.77473684,10.9040493 L8.77473684,11.4868838 L10.4017544,11.4868838 L10.4017544,12.090493 L10.4017544,12.090493 Z M13.6759649,9.95801056 C13.6759649,10.4233275 13.3664912,10.6637324 13.1861404,10.7359155 C13.3382456,10.7940141 13.4681579,10.8966549 13.53,10.9816901 C13.6281579,11.1268486 13.6450877,11.2565141 13.6450877,11.5171655 L13.6450877,12.090493 L12.9439474,12.090493 L12.9413158,11.7224472 C12.9413158,11.546831 12.9580702,11.2942782 12.8315789,11.1538732 C12.73,11.0512324 12.5751754,11.0289613 12.3249123,11.0289613 L11.5786842,11.0289613 L11.5786842,12.090493 L10.8835965,12.090493 L10.8835965,9.17200704 L12.4824561,9.17200704 C12.8377193,9.17200704 13.0994737,9.18142606 13.3242105,9.31179577 C13.5441228,9.44216549 13.6759649,9.63248239 13.6759649,9.95801056 L13.6759649,9.95801056 Z M14.7884211,12.090493 L14.0791228,12.090493 L14.0791228,9.17200704 L14.7884211,9.17200704 L14.7884211,12.090493 L14.7884211,12.090493 Z M23.017193,12.090493 L22.0321053,12.090493 L20.7144737,9.9 L20.7144737,12.090493 L19.2987719,12.090493 L19.0282456,11.4395246 L17.5842105,11.4395246 L17.3217544,12.090493 L16.5083333,12.090493 C16.1704386,12.090493 15.7426316,12.015493 15.5003509,11.7676937 C15.2560526,11.5198944 15.1289474,11.184243 15.1289474,10.6535211 C15.1289474,10.2206866 15.2049123,9.825 15.5036842,9.51232394 C15.7284211,9.27940141 16.0803509,9.17200704 16.559386,9.17200704 L17.2323684,9.17200704 L17.2323684,9.79735915 L16.5735088,9.79735915 C16.3198246,9.79735915 16.1765789,9.83521127 16.0385965,9.97024648 C15.9200877,10.0931338 15.8387719,10.3254401 15.8387719,10.631338 C15.8387719,10.9440141 15.9007018,11.1694542 16.0299123,11.3167254 C16.1369298,11.4322183 16.3314035,11.4672535 16.514386,11.4672535 L16.8265789,11.4672535 L17.8063158,9.17209507 L18.8478947,9.17209507 L20.0248246,11.9325704 L20.0248246,9.17209507 L21.0832456,9.17209507 L22.3051754,11.2046655 L22.3051754,9.17209507 L23.017193,9.17209507 L23.017193,12.090493 L23.017193,12.090493 Z M0.0560526316,12.6637324 L1.24377193,12.6637324 L1.51157895,12.015493 L2.11114035,12.015493 L2.37824561,12.6637324 L4.71517544,12.6637324 L4.71517544,12.1681338 L4.92377193,12.6658451 L6.13692982,12.6658451 L6.34552632,12.1607394 L6.34552632,12.6637324 L12.1532456,12.6637324 L12.1505263,11.5996479 L12.2628947,11.5996479 C12.3415789,11.6023768 12.3645614,11.6096831 12.3645614,11.7400528 L12.3645614,12.6637324 L15.3683333,12.6637324 L15.3683333,12.4160211 C15.610614,12.5463028 15.9874561,12.6637324 16.4833333,12.6637324 L17.7470175,12.6637324 L18.0174561,12.015493 L18.6170175,12.015493 L18.8814912,12.6637324 L21.3166667,12.6637324 L21.3166667,12.0479754 L21.6854386,12.6637324 L23.6368421,12.6637324 L23.6368421,8.59330986 L21.705614,8.59330986 L21.705614,9.07403169 L21.4351754,8.59330986 L19.4535088,8.59330986 L19.4535088,9.07403169 L19.2051754,8.59330986 L16.5284211,8.59330986 C16.0803509,8.59330986 15.6864912,8.65607394 15.3683333,8.83098592 L15.3683333,8.59330986 L13.5211404,8.59330986 L13.5211404,8.83098592 C13.3186842,8.65070423 13.042807,8.59330986 12.7360526,8.59330986 L5.98754386,8.59330986 L5.53473684,9.64463028 L5.06973684,8.59330986 L2.94412281,8.59330986 L2.94412281,9.07403169 L2.71061404,8.59330986 L0.897807018,8.59330986 L0.0559649123,10.5286092 L0.0559649123,12.6637324 L0.0560526316,12.6637324 Z" id="Shape" fill="#FFFFFF" sketch:type="MSShapeGroup"></path>
            <path d="M24.7880702,14.8164613 L23.5211404,14.8164613 C23.3946491,14.8164613 23.310614,14.8212148 23.2398246,14.8691901 C23.1664912,14.9164613 23.1382456,14.9866197 23.1382456,15.0792254 C23.1382456,15.1893486 23.2001754,15.2642606 23.2902632,15.2966549 C23.3635965,15.3222711 23.4423684,15.3297535 23.5581579,15.3297535 L23.9349123,15.3398768 C24.3150877,15.3492958 24.5688596,15.4148768 24.7235965,15.5748239 C24.7517544,15.5970951 24.7686842,15.6220951 24.7880702,15.6470951 L24.7880702,14.8164613 Z M24.7880702,16.7410211 C24.6192105,16.9888204 24.2901754,17.1144366 23.8447368,17.1144366 L22.5022807,17.1144366 L22.5022807,16.4884683 L23.8392982,16.4884683 C23.9719298,16.4884683 24.0647368,16.4709507 24.120614,16.4161972 C24.1690351,16.3710387 24.202807,16.3054577 24.202807,16.2257923 C24.202807,16.140757 24.1690351,16.0732394 24.1178947,16.0327465 C24.0674561,15.9882042 23.9940351,15.9679577 23.8729825,15.9679577 C23.2202632,15.9456866 22.4059649,15.9882042 22.4059649,15.0644366 C22.4059649,14.6410211 22.6738596,14.1953345 23.4033333,14.1953345 L24.7879825,14.1953345 L24.7879825,13.6145246 L23.5014912,13.6145246 C23.1132456,13.6145246 22.8312281,13.7078345 22.6314912,13.8529049 L22.6314912,13.6145246 L20.7285965,13.6145246 C20.4242982,13.6145246 20.0671053,13.6902289 19.8981579,13.8529049 L19.8981579,13.6145246 L16.5000877,13.6145246 L16.5000877,13.8529049 C16.2296491,13.6571303 15.7733333,13.6145246 15.5627193,13.6145246 L13.3213158,13.6145246 L13.3213158,13.8529049 C13.1073684,13.6449824 12.6315789,13.6145246 12.3415789,13.6145246 L9.83307018,13.6145246 L9.25903509,14.2379401 L8.72140351,13.6145246 L4.97421053,13.6145246 L4.97421053,17.6877641 L8.65087719,17.6877641 L9.24236842,17.0544894 L9.7995614,17.6877641 L12.0658772,17.6897887 L12.0658772,16.7316021 L12.2886842,16.7316021 C12.589386,16.7362676 12.9440351,16.7241197 13.2569298,16.5883803 L13.2569298,17.6876761 L15.1262281,17.6876761 L15.1262281,16.6260563 L15.2164035,16.6260563 C15.3314912,16.6260563 15.342807,16.6308099 15.342807,16.7462148 L15.342807,17.687588 L21.0214035,17.687588 C21.3819298,17.687588 21.7587719,17.5949824 21.9674561,17.4269366 L21.9674561,17.687588 L23.7686842,17.687588 C24.1435088,17.687588 24.5095614,17.6348592 24.7880702,17.4998239 L24.7880702,16.7410211 L24.7880702,16.7410211 Z M22.0151754,15.5748239 C22.1505263,15.7154049 22.2230702,15.8928697 22.2230702,16.1933099 C22.2230702,16.8213028 21.8321053,17.1144366 21.1310526,17.1144366 L19.7771053,17.1144366 L19.7771053,16.4884683 L21.125614,16.4884683 C21.2574561,16.4884683 21.3509649,16.4709507 21.4095614,16.4161972 C21.4573684,16.3710387 21.4916667,16.3054577 21.4916667,16.2257923 C21.4916667,16.140757 21.4545614,16.0732394 21.4068421,16.0327465 C21.3536842,15.9882042 21.2803509,15.9679577 21.1592982,15.9679577 C20.5092105,15.9456866 19.6950877,15.9882042 19.6950877,15.0644366 C19.6950877,14.6410211 19.9601754,14.1953345 20.6889474,14.1953345 L22.0825439,14.1953345 L22.0825439,14.8166373 L20.8073684,14.8166373 C20.6809649,14.8166373 20.5987719,14.8213908 20.5288596,14.8693662 C20.4527193,14.9166373 20.4244737,14.9867958 20.4244737,15.0794014 C20.4244737,15.1895246 20.4891228,15.2644366 20.5765789,15.296831 C20.6499123,15.3224472 20.7286842,15.3299296 20.8471053,15.3299296 L21.2213158,15.3400528 C21.5986842,15.3492958 21.8577193,15.4147887 22.0151754,15.5748239 L22.0151754,15.5748239 Z M15.7425439,15.3945423 C15.6495614,15.449912 15.5345614,15.4546655 15.3992982,15.4546655 L14.5548246,15.4546655 L14.5548246,14.7990317 L15.4107895,14.7990317 C15.5345614,14.7990317 15.6584211,14.8016725 15.7425439,14.8517606 C15.8326316,14.8990317 15.8864912,14.9894366 15.8864912,15.1143486 C15.8864912,15.2392606 15.8326316,15.3398768 15.7425439,15.3945423 L15.7425439,15.3945423 Z M16.1623684,15.7578345 C16.3171053,15.8151408 16.4435965,15.9178697 16.5028947,16.0029049 C16.6010526,16.1454225 16.6152632,16.2784331 16.6180702,16.5357394 L16.6180702,17.1144366 L15.9201754,17.1144366 L15.9201754,16.7492077 C15.9201754,16.5735915 15.9370175,16.3135563 15.807807,16.1778169 C15.7062281,16.0732394 15.5514035,16.0482394 15.297807,16.0482394 L14.5549123,16.0482394 L14.5549123,17.1144366 L13.8564035,17.1144366 L13.8564035,14.1952465 L15.4613158,14.1952465 C15.8132456,14.1952465 16.0695614,14.2108275 16.2977193,14.3330106 C16.5171053,14.4660211 16.6550877,14.6482394 16.6550877,14.98125 C16.655,15.4471831 16.3453509,15.6849472 16.1623684,15.7578345 L16.1623684,15.7578345 Z M17.0405263,14.1952465 L19.360614,14.1952465 L19.360614,14.7989437 L17.732807,14.7989437 L17.732807,15.3296655 L19.3208772,15.3296655 L19.3208772,15.9252641 L17.732807,15.9252641 L17.732807,16.5060739 L19.360614,16.5087148 L19.360614,17.1144366 L17.0405263,17.1144366 L17.0405263,14.1952465 L17.0405263,14.1952465 Z M12.3504386,15.5424296 L11.4521053,15.5424296 L11.4521053,14.7990317 L12.3585088,14.7990317 C12.6094737,14.7990317 12.7836842,14.9016725 12.7836842,15.1569542 C12.7836842,15.409419 12.6175439,15.5424296 12.3504386,15.5424296 L12.3504386,15.5424296 Z M10.7597368,16.8489437 L9.69245614,15.6598592 L10.7597368,14.5085387 L10.7597368,16.8489437 L10.7597368,16.8489437 Z M8.00350877,16.5060739 L6.29438596,16.5060739 L6.29438596,15.9252641 L7.82052632,15.9252641 L7.82052632,15.3296655 L6.29438596,15.3296655 L6.29438596,14.7989437 L8.03719298,14.7989437 L8.79754386,15.6496479 L8.00350877,16.5060739 L8.00350877,16.5060739 Z M13.53,15.1569542 C13.53,15.9678697 12.9271053,16.1352993 12.3194737,16.1352993 L11.4521053,16.1352993 L11.4521053,17.1144366 L10.1009649,17.1144366 L9.245,16.1480634 L8.3554386,17.1144366 L5.60192982,17.1144366 L5.60192982,14.1952465 L8.39780702,14.1952465 L9.25307018,15.1521127 L10.1372807,14.1952465 L12.3585088,14.1952465 C12.9101754,14.1952465 13.53,14.3485035 13.53,15.1569542 L13.53,15.1569542 Z" id="Shape" fill="#FFFFFF" sketch:type="MSShapeGroup"></path>
        </g>
        <g id="Visa_2014_logo_detail" sketch:type="MSLayerGroup" transform="translate(0.672367, 6.000000)">
            <g id="g3900" sketch:type="MSShapeGroup">
                <g id="g3891">
                    <path d="M17.1872802,0.141605926 L20.6429806,0.141605926 L18.4809254,12.7115665 L15.0267146,12.7115665 L17.1872802,0.141605926 Z" id="polygon3052" fill="url(#linearGradient-3)"></path>
                    <path d="M31.0315087,0.548358025 C30.3468325,0.293699509 29.2740941,0.0204199534 27.9343376,0.0204199534 C24.5197617,0.0204199534 22.114521,1.72533504 22.0939908,4.16867004 C22.0747565,5.97484498 23.8111228,6.98237074 25.1219301,7.58370074 C26.4670617,8.19980025 26.9192387,8.59276791 26.9127624,9.14292313 C26.9042782,9.98549221 25.8385994,10.3704342 24.8453909,10.3704342 C23.4622436,10.3704342 22.7274397,10.1799212 21.5925291,9.71060681 L21.147217,9.51084865 L20.6622056,12.3247417 C21.4692843,12.6755878 22.9618824,12.9796243 24.5116017,12.9953551 C28.1441058,12.9953551 30.5022642,11.3100247 30.5290761,8.7008338 C30.542093,7.2708681 29.621354,6.18269417 27.627748,5.28561026 C26.4198491,4.70412074 25.6801238,4.31609714 25.6879604,3.72728758 C25.6879604,3.20480745 26.3140915,2.64611252 27.6669301,2.64611252 C28.7969836,2.6287115 29.6155253,2.87303214 30.2533791,3.12769066 L30.5630118,3.27274202 L31.0315087,0.548358025" id="path3054" fill="url(#linearGradient-4)"></path>
                    <path d="M39.8928648,0.250871129 L37.222613,0.250871129 C36.3954569,0.250871129 35.7763853,0.474708638 35.4131288,1.29326313 L30.2809028,12.8128056 L33.9096511,12.8128056 C33.9096511,12.8128056 34.5029461,11.263921 34.6371358,10.9238633 C35.0336804,10.9238633 38.5588727,10.9292547 39.0627951,10.9292547 C39.1662216,11.3692888 39.483238,12.8128032 39.483238,12.8128032 L42.6897938,12.8128032 L39.8928648,0.250871129 L39.8928648,0.250871129 Z M35.6316394,8.35281423 C35.9174398,7.62858423 37.0084406,4.83896264 37.0084406,4.83896264 C36.9880399,4.87241619 37.2921037,4.11120167 37.466641,3.63925509 L37.7001772,4.72299866 C37.7001772,4.72299866 38.3618625,7.72348742 38.5001973,8.35268503 L35.6316394,8.35284454 L35.6316394,8.35281423 Z" id="path3056" fill="url(#linearGradient-5)"></path>
                    <g id="g3079" transform="translate(0.007338, 0.213051)">
                        <path d="M12.1382456,0.0349946797 L8.75501522,8.60676489 L8.39454316,6.86480037 C7.7647209,4.85674786 5.80239548,2.68110615 3.60860634,1.59190477 L6.70215083,12.5849216 L10.3583581,12.5808121 L15.7987272,0.0349946797 L12.1382456,0.0349946797" id="path3058" fill="url(#linearGradient-6)"></path>
                        <path d="M5.61639553,0.0272252187 L0.0441037494,0.0272252187 L0,0.288754265 C4.33518485,1.32921993 7.20374193,3.84363583 8.3944784,6.86480037 L7.18282341,1.08843085 C6.97363823,0.29247847 6.36693643,0.0549641208 5.61639553,0.0272252187" id="path3060" fill="url(#linearGradient-7)"></path>
                    </g>
                    <path d="M3.75204007,2.28253218 C3.68050684,2.01931696 3.60626892,1.86120577 3.33272511,1.7146614 L4.35106159,2.16927818" id="path3041" fill="url(#linearGradient-8)"></path>
                </g>
            </g>
        </g>
        <g id="MasterCard_Logo" sketch:type="MSLayerGroup" transform="translate(49.000000, 2.000000)">
            <g id="layer1" sketch:type="MSShapeGroup">
                <g id="g10305">
                    <path d="M35.0379883,10.5 C35.0396398,16.241095 30.3613337,20.8960559 24.5888277,20.897581 C18.8162037,20.8989888 14.1358923,16.2463743 14.1343588,10.5052793 L14.1343588,10.5 C14.1328254,4.75902235 18.8111315,0.103826816 24.5834015,0.102301676 C30.3560255,0.100776536 35.0364548,4.7536257 35.0379883,10.4947207 L35.0379883,10.5 L35.0379883,10.5 Z" id="path2268" fill="#FF9900"></path>
                    <path d="M10.498586,0.105 C4.76028852,0.141251397 0.114067625,4.78436313 0.114067625,10.5 C0.114067625,16.2379274 4.79650233,20.8948827 10.5659413,20.8948827 C13.2737204,20.8948827 15.741922,19.868581 17.5992072,18.1864693 C17.5990892,18.1864693 17.5988533,18.1862346 17.5983815,18.186 L17.6006227,18.186 C17.9809268,17.8413184 18.3356334,17.469419 18.6616757,17.0728827 L16.5203421,17.0728827 C16.2344063,16.7293743 15.9745398,16.3714358 15.7410963,16.0021173 L19.4341978,16.0021173 C19.6587943,15.644648 19.8621579,15.2734525 20.0426371,14.889 L15.1313594,14.889 C14.9639737,14.5321173 14.8186466,14.1671397 14.6945524,13.7968827 L20.479916,13.7968827 C20.8286067,12.7607263 21.0178151,11.6521844 21.0178151,10.4998827 C21.0178151,9.73590503 20.9345351,8.99105028 20.7769401,8.27388268 L14.3877376,8.27388268 C14.466889,7.90479888 14.5668014,7.54017318 14.6859413,7.18188268 L20.4734282,7.18188268 C20.3440258,6.80059777 20.1937443,6.42905028 20.0228198,6.06888268 L15.1307696,6.06888268 C15.3072383,5.69393296 15.507181,5.32918994 15.7304799,4.977 L19.4208683,4.977 C19.1752749,4.58785475 18.9034944,4.21607263 18.6096552,3.86388268 L16.5520735,3.86388268 C16.8702124,3.49151397 17.2204366,3.14084916 17.6006227,2.81388268 C15.7432196,1.13153631 13.2743102,0.105 10.5659413,0.105 C10.5434109,0.105 10.5211164,0.104882682 10.498586,0.105 L10.498586,0.105 Z" id="path1350" fill="#CC0000"></path>
                    <path d="M33.9894391,15.9341899 C34.046296,15.9341899 34.1016193,15.9488547 34.1556452,15.9777151 C34.2099069,16.0065754 34.2516649,16.0482235 34.2818627,16.1023073 C34.3120605,16.1558045 34.3271595,16.2122346 34.3271595,16.2706592 C34.3271595,16.3283799 34.3121785,16.3842235 34.2824525,16.4377207 C34.2528445,16.4911006 34.2110865,16.5327486 34.1572966,16.5624302 C34.1040965,16.5916425 34.0478294,16.6064246 33.9893211,16.6064246 C33.9308128,16.6064246 33.8746637,16.5916425 33.8211097,16.5624302 C33.7674378,16.5326313 33.7259157,16.4912179 33.6957179,16.4377207 C33.6659919,16.3842235 33.6512469,16.3283799 33.6512469,16.2706592 C33.6512469,16.2122346 33.6662278,16.1558045 33.6965436,16.1023073 C33.7269774,16.0482235 33.7689713,16.0069274 33.8228791,15.9777151 C33.8773768,15.9488547 33.9327002,15.9341899 33.9894391,15.9341899 M33.9894391,15.9899162 C33.942137,15.9899162 33.8958966,16.0021173 33.8507178,16.0264022 C33.8058928,16.0506872 33.7708586,16.0850615 33.7456151,16.130581 C33.7200177,16.1753966 33.707278,16.2218547 33.707278,16.2706592 C33.707278,16.3189944 33.7197818,16.3656872 33.7444355,16.4100335 C33.769679,16.4542626 33.8045953,16.4889888 33.8491843,16.5138603 C33.8941272,16.5386145 33.9407215,16.5508156 33.9893211,16.5508156 C34.0381567,16.5508156 34.084869,16.5386145 34.1295759,16.5138603 C34.1741649,16.4889888 34.2089632,16.4542626 34.2338529,16.4100335 C34.2585066,16.3656872 34.2707744,16.3191117 34.2707744,16.2706592 C34.2707744,16.2218547 34.2582706,16.1752793 34.2329092,16.130581 C34.2077836,16.0850615 34.1726315,16.0506872 34.1274527,16.0264022 C34.0827457,16.002 34.0367412,15.9899162 33.9894391,15.9899162 M33.8412809,16.456257 L33.8412809,16.0946816 L33.9665548,16.0946816 C34.0090205,16.0946816 34.0399261,16.0979665 34.0590357,16.1050056 C34.0781452,16.1116927 34.0933621,16.1230726 34.1048043,16.1398492 C34.1160105,16.1563911 34.1217906,16.1739888 34.1217906,16.1927598 C34.1217906,16.2192737 34.1123537,16.2422682 34.0932442,16.261743 C34.0746064,16.2812179 34.049245,16.2923631 34.0178675,16.2947095 C34.0307252,16.2999888 34.0409877,16.306676 34.049009,16.3139497 C34.0637541,16.3280279 34.0814481,16.3518436 34.102681,16.385514 L34.1469161,16.456257 L34.0754322,16.456257 L34.043347,16.3993575 C34.0179855,16.3545419 33.9975783,16.3266201 33.9818896,16.3151229 C33.9711552,16.3070279 33.9554665,16.3028045 33.9350594,16.3028045 L33.900497,16.3028045 L33.900497,16.4566089 L33.8415169,16.4566089 M33.9000252,16.2527095 L33.9712732,16.2527095 C34.0052458,16.2527095 34.028248,16.2475475 34.0406339,16.2375754 C34.0531377,16.2272514 34.0593896,16.2141117 34.0593896,16.1974525 C34.0593896,16.1866592 34.0565585,16.1770391 34.0505425,16.1688268 C34.0444086,16.1602626 34.0361514,16.154162 34.025417,16.1498212 C34.0149185,16.1457151 33.9953371,16.1433687 33.9667907,16.1433687 L33.9002611,16.1433687 L33.9002611,16.2527095" id="use9412" fill="#FCB340"></path>
                </g>
                <g id="g16480" transform="translate(0.707762, 7.743017)">
                    <g id="g13802" transform="translate(0.030192, 0.233921)" fill="#000066">
                        <path d="M13.2963688,5.50528492 L13.4355619,4.56439106 C13.3594775,4.56439106 13.2476512,4.59712291 13.1488004,4.59712291 C12.7614187,4.59712291 12.713055,4.39122905 12.7434888,4.24082682 L13.1252083,2.34848045 L13.7140662,2.34848045 L13.8354474,1.28053073 L13.2804441,1.28053073 L13.3934501,0.633402235 L12.2324847,0.633402235 C12.2079489,0.657804469 11.5756816,4.27285475 11.5756816,4.71326816 C11.5756816,5.36497207 11.9434819,5.65498324 12.4622714,5.65040782 C12.8682908,5.64700559 13.1847783,5.53520112 13.2963688,5.50528492 L13.2963688,5.50528492 Z" id="path13804"></path>
                        <path d="M13.6487162,3.71172067 C13.6487162,5.27581006 14.686649,5.64735754 15.5711155,5.64735754 C16.3875188,5.64735754 16.8155968,5.45917877 16.8155968,5.45917877 L17.0116468,4.39158101 C17.0116468,4.39158101 16.3218149,4.67056425 15.7611495,4.67056425 C14.5660936,4.67056425 14.7755911,3.78434078 14.7755911,3.78434078 L17.0714527,3.79126257 C17.0714527,3.79126257 17.2176056,3.07432961 17.2176056,2.78208939 C17.2176056,2.05272067 16.818074,1.15734637 15.596241,1.15734637 C14.4772695,1.15758101 13.6487162,2.35669274 13.6487162,3.71172067 L13.6487162,3.71172067 Z M15.6004876,2.14845251 C16.2285083,2.14845251 16.1126713,2.85048603 16.1126713,2.90738547 L14.8771549,2.90738547 C14.8771549,2.83464804 14.9938177,2.14845251 15.6004876,2.14845251 L15.6004876,2.14845251 Z" id="path13806"></path>
                        <path d="M22.6472009,5.50493296 L22.8464359,4.29843017 C22.8464359,4.29843017 22.3000437,4.57072626 21.9255197,4.57072626 C21.1360113,4.57072626 20.8192879,3.97122905 20.8192879,3.32703352 C20.8192879,2.0204581 21.4985034,1.30153073 22.254629,1.30153073 C22.8217822,1.30153073 23.2767551,1.61817318 23.2767551,1.61817318 L23.458414,0.445810056 C23.458414,0.445810056 22.9212227,0.0599497207 22.3429813,0.0577206704 C20.6036564,0.0509162011 19.6084252,1.25530726 19.6084252,3.33735754 C19.6084252,4.7173743 20.3454413,5.65650838 21.6734385,5.65650838 C22.0489062,5.65650838 22.6472009,5.50493296 22.6472009,5.50493296 L22.6472009,5.50493296 Z" id="path13808"></path>
                        <path d="M7.17552597,1.17459218 C6.41244069,1.17459218 5.82759345,1.41849721 5.82759345,1.41849721 L5.66598782,2.37194413 C5.66598782,2.37194413 6.14879939,2.17684358 6.87873782,2.17684358 C7.2931324,2.17684358 7.59629041,2.22318436 7.59629041,2.55812849 C7.59629041,2.76155866 7.55925088,2.83664246 7.55925088,2.83664246 C7.55925088,2.83664246 7.23226488,2.8095419 7.08080384,2.8095419 C5.99438933,2.8095419 5.10744573,3.21804469 5.10744573,4.44965363 C5.10744573,5.42022905 5.77073658,5.64278212 6.18182828,5.64278212 C6.96709009,5.64278212 7.27791552,5.14969274 7.29584549,5.14828492 L7.28676255,5.55749162 L8.26665889,5.55749162 L8.70381981,2.50955866 C8.70381981,1.21612291 7.56951342,1.17459218 7.17552597,1.17459218 L7.17552597,1.17459218 Z M7.3451529,3.6495419 C7.36650372,3.83560894 7.29678917,4.71549721 6.62653866,4.71549721 C6.28091494,4.71549721 6.19114714,4.45270391 6.19114714,4.29760894 C6.19114714,3.9944581 6.35664546,3.63088827 7.17198716,3.63088827 C7.36190327,3.63088827 7.31318566,3.64449721 7.3451529,3.6495419 L7.3451529,3.6495419 Z" id="path13810"></path>
                        <path d="M9.74529144,5.62025698 C9.99595711,5.62025698 11.4288211,5.68372626 11.4288211,4.21313966 C11.4288211,2.83805028 10.1024753,3.10987709 10.1024753,2.55730726 C10.1024753,2.28254749 10.3186965,2.19596648 10.7139815,2.19596648 C10.8707508,2.19596648 11.4744717,2.24559218 11.4744717,2.24559218 L11.6147265,1.26832961 C11.6147265,1.26844693 11.2240419,1.18139665 10.5879999,1.18139665 C9.76475489,1.18139665 8.92912402,1.50824581 8.92912402,2.62652514 C8.92912402,3.89379888 10.3224713,3.76650838 10.3224713,4.30030726 C10.3224713,4.65660335 9.93320222,4.68593296 9.63311118,4.68593296 C9.11396783,4.68593296 8.64660906,4.5086648 8.64495762,4.51722905 L8.49644558,5.48451955 C8.52345849,5.49273184 8.81187146,5.62025698 9.74529144,5.62025698 L9.74529144,5.62025698 Z" id="path13812"></path>
                        <path d="M31.8265187,0.28801676 L31.6253964,1.77901676 C31.6253964,1.77901676 31.2062834,1.20356983 30.550542,1.20356983 C29.3167951,1.20356983 28.680989,2.42637989 28.680989,3.83103352 C28.680989,4.73790503 29.1344284,5.62682682 30.0610067,5.62682682 C30.7276005,5.62682682 31.0971701,5.16447486 31.0971701,5.16447486 L31.0482166,5.5592514 L32.1308564,5.5592514 L32.9809964,0.296111732 L31.8265187,0.28801676 L31.8265187,0.28801676 Z M31.3485436,3.18589944 C31.3485436,3.77049721 31.0574175,4.55148603 30.4542864,4.55148603 C30.0536932,4.55148603 29.8659004,4.21701117 29.8659004,3.69224581 C29.8659004,2.83406145 30.2534,2.268 30.7425814,2.268 C31.1429387,2.268 31.3485436,2.54135196 31.3485436,3.18589944 L31.3485436,3.18589944 Z" id="path13814"></path>
                        <path d="M1.14999511,5.56359218 L1.8274412,1.59001676 L1.92699971,5.56359218 L2.6936238,5.56359218 L4.12389262,1.59001676 L3.49032776,5.56359218 L4.62958849,5.56359218 L5.50685935,0.293413408 L3.6971122,0.279687151 L2.62060636,3.50641341 L2.59111628,0.293413408 L0.932594252,0.293413408 L0.0427016341,5.56359218 L1.14999511,5.56359218 L1.14999511,5.56359218 Z" id="path13816"></path>
                        <path d="M18.2957628,5.57110056 C18.6196819,3.73917318 18.7350471,2.29240223 19.6796733,2.59203352 C19.8153276,1.88296089 20.1386568,1.2663352 20.2863432,0.966234637 C20.2863432,0.966234637 20.2396309,0.897134078 19.9476791,0.897134078 C19.4492968,0.897134078 18.7838826,1.90302235 18.7838826,1.90302235 L18.8833232,1.28111732 L17.8469238,1.28111732 L17.1528453,5.57098324 L18.2957628,5.57098324 L18.2957628,5.57110056 Z" id="path13818"></path>
                        <g id="use14699" transform="translate(22.801741, 1.173184)">
                            <path d="M2.17636781,0.00140782123 C1.41292865,0.00140782123 0.828081412,0.245312849 0.828081412,0.245312849 L0.666593741,1.19875978 C0.666593741,1.19875978 1.14964123,1.00365922 1.87922578,1.00365922 C2.29373833,1.00365922 2.59677838,1.05 2.59677838,1.38494413 C2.59677838,1.5883743 2.5598568,1.6634581 2.5598568,1.6634581 C2.5598568,1.6634581 2.23298877,1.63635754 2.08152772,1.63635754 C0.994995258,1.63635754 0.108169609,2.04486034 0.108169609,3.27646927 C0.108169609,4.24704469 0.771342501,4.46959777 1.1824342,4.46959777 C1.9674601,4.46959777 2.27852145,3.97650838 2.29633345,3.97510056 L2.28713255,4.38430726 L3.26726481,4.38430726 L3.70430778,1.3363743 C3.70442574,0.0429385475 2.57011935,0.00140782123 2.17636781,0.00140782123 L2.17636781,0.00140782123 Z M2.34575883,2.47635754 C2.36699168,2.66242458 2.29727714,3.54231285 1.62714459,3.54231285 C1.28128494,3.54231285 1.1916351,3.27951955 1.1916351,3.12442458 C1.1916351,2.82127374 1.35701547,2.45770391 2.17247512,2.45770391 C2.36250919,2.45770391 2.31390954,2.47131285 2.34575883,2.47635754 L2.34575883,2.47635754 Z" id="path13810_1_"></path>
                        </g>
                        <path d="M27.6340912,5.57110056 C27.8119753,4.22334637 28.1412026,2.33123464 29.0178836,2.59203352 C29.15342,1.88296089 29.02272,1.88483799 28.7308862,1.88483799 C28.23215,1.88483799 28.1217391,1.90290503 28.1217391,1.90290503 L28.2212976,1.281 L27.1850163,1.281 L26.4909378,5.57098324 L27.6340912,5.57098324 L27.6340912,5.57110056 L27.6340912,5.57110056 Z" id="use14701"></path>
                    </g>
                    <g id="g10289" transform="translate(0.353881, 0.000000)" fill="#FFFFFF">
                        <path d="M13.2627501,5.40356983 L13.4020612,4.4627933 C13.3259768,4.4627933 13.2140325,4.49517318 13.1152997,4.49517318 C12.727918,4.49517318 12.6852164,4.2903352 12.7098701,4.13887709 L13.0228188,2.21931285 L13.6115587,2.21931285 L13.7537009,1.17869832 L13.1985797,1.17869832 L13.3115856,0.531569832 L12.198748,0.531569832 C12.1742123,0.555972067 11.541827,4.17113966 11.541827,4.61131844 C11.541827,5.26302235 11.9097453,5.55326816 12.4285347,5.54857542 C12.83479,5.54517318 13.1511596,5.43336872 13.2627501,5.40356983 L13.2627501,5.40356983 Z" id="path4157"></path>
                        <path d="M13.6153335,3.60988827 C13.6153335,5.17397765 14.6533842,5.54564246 15.5377327,5.54564246 C16.3540181,5.54564246 16.7132073,5.36415084 16.7132073,5.36415084 L16.9092573,4.29667039 C16.9092573,4.29667039 16.2883142,4.56873184 15.7275309,4.56873184 C14.5325929,4.56873184 14.7418545,3.6826257 14.7418545,3.6826257 L17.0033896,3.6826257 C17.0033896,3.6826257 17.1494245,2.9654581 17.1494245,2.67321788 C17.1494245,1.94396648 16.7844553,1.05539665 15.5626223,1.05539665 C14.4436508,1.05563128 13.6153335,2.25474302 13.6153335,3.60988827 L13.6153335,3.60988827 Z M15.5668689,2.04662011 C16.1948896,2.04662011 16.0790526,2.74853631 16.0790526,2.80531844 L14.8435363,2.80531844 C14.8435363,2.73281564 14.960317,2.04662011 15.5668689,2.04662011 L15.5668689,2.04662011 Z" id="path4155"></path>
                        <path d="M22.6138181,5.40310056 L22.8129351,4.19648045 C22.8129351,4.19648045 22.2668968,4.46877654 21.8921369,4.46877654 C21.1027465,4.46877654 20.786141,3.86927933 20.786141,3.22520112 C20.786141,1.9186257 21.4653565,1.19981564 22.2214821,1.19981564 C22.7885174,1.19981564 23.2436083,1.5164581 23.2436083,1.5164581 L23.4252671,0.344094972 C23.4252671,0.344094972 22.7504162,0.0725027933 22.1719388,0.0725027933 C20.887233,0.0725027933 19.6374435,1.18092737 19.6374435,3.2626257 C19.6374435,4.64299441 20.3122944,5.55467598 21.6402917,5.55467598 C22.0157593,5.5547933 22.6138181,5.40310056 22.6138181,5.40310056 L22.6138181,5.40310056 Z" id="path4151"></path>
                        <path d="M7.1421432,1.07264246 C6.37905792,1.07264246 5.79409272,1.31654749 5.79409272,1.31654749 L5.63260505,2.26999441 C5.63260505,2.26999441 6.11541662,2.07489385 6.84523709,2.07489385 C7.25963167,2.07489385 7.56278968,2.12123464 7.56278968,2.45617877 C7.56278968,2.65960894 7.52563219,2.73469274 7.52563219,2.73469274 C7.52563219,2.73469274 7.19876415,2.70747486 7.04742107,2.70747486 C6.08498286,2.70747486 5.073945,3.11597765 5.073945,4.34758659 C5.073945,5.31804469 5.73723585,5.54071508 6.14832755,5.54071508 C6.9334714,5.54071508 7.27189955,5.03401676 7.28994748,5.03249162 L7.25326182,5.45542458 L8.23315816,5.45542458 L8.67031908,2.4073743 C8.67031908,1.1142905 7.53613065,1.07264246 7.1421432,1.07264246 L7.1421432,1.07264246 Z M7.380541,3.55439665 C7.40177385,3.74058101 7.26317048,4.61331285 6.59315589,4.61331285 C6.24753217,4.61331285 6.15764641,4.35075419 6.15764641,4.19542458 C6.15764641,3.89250838 6.32314473,3.52882123 7.13860439,3.52882123 C7.32828458,3.52905587 7.34857375,3.54923464 7.380541,3.55439665 L7.380541,3.55439665 Z" id="path4149"></path>
                        <path d="M9.71179071,5.51842458 C9.96245638,5.51842458 11.3954383,5.58177654 11.3954383,4.11118994 C11.3954383,2.7363352 10.0689745,3.00792737 10.0689745,2.45559218 C10.0689745,2.18059777 10.2851958,2.09401676 10.6803629,2.09401676 C10.8372501,2.09401676 11.440853,2.14364246 11.440853,2.14364246 L11.5812258,1.16637989 C11.5812258,1.16649721 11.1905412,1.07944693 10.5544992,1.07944693 C9.73125416,1.07944693 8.89562329,1.40629609 8.89562329,2.52457542 C8.89562329,3.79173184 10.2889705,3.66455866 10.2889705,4.19835754 C10.2889705,4.55465363 9.89970149,4.58363128 9.59972841,4.58363128 C9.08058506,4.58363128 8.61310833,4.40648045 8.61145689,4.41492737 L8.46306281,5.3823352 C8.48995776,5.39054749 8.77825277,5.51842458 9.71179071,5.51842458 L9.71179071,5.51842458 Z" id="path4145"></path>
                        <path d="M31.831827,0.195687151 L31.5917777,1.67706704 C31.5917777,1.67706704 31.1729006,1.10162011 30.5171593,1.10162011 C29.4975103,1.10162011 28.6476062,2.32431285 28.6476062,3.72920112 C28.6476062,4.63607263 29.1009277,5.52464246 30.0276239,5.52464246 C30.6942177,5.52464246 31.0637874,5.06240782 31.0637874,5.06240782 L31.0148338,5.45718436 L32.0972377,5.45718436 L32.9473777,0.193927374 L31.831827,0.195687151 L31.831827,0.195687151 Z M31.3150428,3.08406704 C31.3150428,3.6686648 31.0240347,4.44953631 30.4206677,4.44953631 C30.0201924,4.44953631 29.8325176,4.11517877 29.8325176,3.59041341 C29.8325176,2.73234637 30.2200172,2.1661676 30.7089627,2.1661676 C31.109556,2.16605028 31.3150428,2.43975419 31.3150428,3.08406704 L31.3150428,3.08406704 Z" id="path4139"></path>
                        <path d="M1.11661234,5.46175978 L1.79405843,1.48818436 L1.89349898,5.46175978 L2.66024103,5.46175978 L4.09050985,1.48818436 L3.456945,5.46175978 L4.59620572,5.46175978 L5.47359454,0.191463687 L3.71185724,0.191463687 L2.61470835,3.42511173 L2.55761555,0.191463687 L0.933655894,0.191463687 L0.0436453166,5.46175978 L1.11661234,5.46175978 L1.11661234,5.46175978 Z" id="path4133"></path>
                        <path d="M18.2623801,5.46903352 C18.5862991,3.63698883 18.6463409,2.14939106 19.4193348,2.42168715 C19.5546353,1.71261453 19.6852174,1.43832402 19.8329037,1.13822346 C19.8329037,1.13822346 19.763661,1.1237933 19.6183339,1.1237933 C19.1199516,1.1237933 18.7507358,1.80095531 18.7507358,1.80095531 L18.8499404,1.17905028 L17.813777,1.17905028 L17.1195805,5.46903352 L18.2623801,5.46903352 L18.2623801,5.46903352 Z" id="path4131"></path>
                        <g id="use8523" transform="translate(23.002993, 1.055866)">
                            <path d="M2.17860906,0.0167765363 C1.41552378,0.0167765363 0.830558579,0.260681564 0.830558579,0.260681564 L0.669188868,1.21412849 C0.669188868,1.21412849 1.15200044,1.01902793 1.88182091,1.01902793 C2.29621549,1.01902793 2.59913758,1.06536872 2.59913758,1.40031285 C2.59913758,1.60374302 2.56221601,1.67882682 2.56221601,1.67882682 C2.56221601,1.67882682 2.23534797,1.65160894 2.08388693,1.65160894 C1.12156668,1.65160894 0.110528815,2.06011173 0.110528815,3.29172067 C0.110528815,4.26217877 0.773701707,4.48484916 1.18479341,4.48484916 C1.96993726,4.48484916 2.30836541,3.97815084 2.32629537,3.9766257 L2.28984564,4.39955866 L3.26974198,4.39955866 L3.70678494,1.35150838 C3.7069029,0.058424581 2.57259651,0.0167765363 2.17860906,0.0167765363 L2.17860906,0.0167765363 Z M2.41736074,2.49853073 C2.43859359,2.68471508 2.29987226,3.55744693 1.62962175,3.55744693 C1.28399803,3.55744693 1.19434819,3.29488827 1.19434819,3.13955866 C1.19434819,2.83664246 1.35984651,2.47295531 2.17518821,2.47295531 C2.3648684,2.47318994 2.38503961,2.49336872 2.41736074,2.49853073 L2.41736074,2.49853073 Z" id="path4149_1_"></path>
                        </g>
                        <g id="use8525" transform="translate(26.456812, 1.055866)">
                            <path d="M1.14857959,4.4131676 C1.47261657,2.58112291 1.53265837,1.09352514 2.3054164,1.36582123 C2.4409528,0.656748603 2.57165283,0.382458101 2.71922118,0.0823575419 C2.71922118,0.0823575419 2.64997848,0.0679273743 2.50465137,0.0679273743 C2.00626904,0.0679273743 1.63705325,0.745089385 1.63705325,0.745089385 L1.73625788,0.123184358 L0.70009447,0.123184358 L0.00589801576,4.4131676 L1.14857959,4.4131676 L1.14857959,4.4131676 Z" id="path4131_1_"></path>
                        </g>
                        <path d="M32.9233138,4.80712291 C32.9798167,4.80712291 33.035494,4.82155307 33.089166,4.85088268 C33.1433097,4.87927374 33.1854216,4.92103911 33.2156194,4.97512291 C33.2459352,5.02885475 33.2607982,5.08481564 33.2607982,5.14335754 C33.2607982,5.20119553 33.2459352,5.25703911 33.2160913,5.31041899 C33.1864832,5.36379888 33.1448432,5.40568156 33.0911713,5.43512849 C33.0376173,5.4644581 32.9814682,5.47924022 32.9231958,5.47924022 C32.8644516,5.47924022 32.8083025,5.4644581 32.7546305,5.43512849 C32.7010765,5.40544693 32.6595545,5.36379888 32.6298285,5.31041899 C32.5996307,5.25703911 32.5848856,5.20119553 32.5848856,5.14335754 C32.5848856,5.08481564 32.5998666,5.02885475 32.6301824,4.97512291 C32.6606161,4.92103911 32.7028459,4.87950838 32.7567538,4.85088268 C32.8111335,4.82155307 32.8668108,4.80712291 32.9233138,4.80712291 M32.9233138,4.86249721 C32.8760117,4.86249721 32.8297712,4.87469832 32.7845924,4.89921788 C32.7395316,4.92315084 32.7044974,4.95775978 32.6791359,5.00304469 C32.6538924,5.04774302 32.6411527,5.09455307 32.6411527,5.14312291 C32.6411527,5.19169274 32.6534206,5.23815084 32.6780743,5.28249721 C32.7031998,5.32672626 32.7381161,5.36145251 32.7831769,5.38644134 C32.8277659,5.41084358 32.8743602,5.42316201 32.9233138,5.42316201 C32.9719134,5.42316201 33.0188616,5.41084358 33.0634506,5.38644134 C33.1080396,5.36145251 33.1429559,5.32672626 33.1677275,5.28249721 C33.1926172,5.23779888 33.2047671,5.19169274 33.2047671,5.14312291 C33.2047671,5.09455307 33.1921453,5.04774302 33.1669018,5.00304469 C33.1417763,4.95775978 33.106742,4.92315084 33.0614453,4.89921788 C33.0166204,4.87481564 32.9707338,4.86249721 32.9233138,4.86249721 M32.7752736,5.32895531 L32.7752736,4.96726257 L32.9004295,4.96726257 C32.9430131,4.96726257 32.9741547,4.9706648 32.9930283,4.97758659 C33.0121379,4.98403911 33.0271188,4.99565363 33.0387969,5.01243017 C33.0502391,5.02908939 33.0560191,5.04656983 33.0560191,5.06534078 C33.0560191,5.09173743 33.0463464,5.11484916 33.0272368,5.13432402 C33.0085991,5.15379888 32.9834735,5.16506145 32.9520961,5.16717318 C32.9645999,5.17256983 32.9749804,5.17902235 32.9830017,5.18629609 C32.9975108,5.20060894 33.0154408,5.2245419 33.0366736,5.25797765 L33.0811447,5.32883799 L33.0093068,5.32883799 L32.9773396,5.27193855 C32.9518602,5.22700559 32.931453,5.1990838 32.9158823,5.18770391 C32.9051479,5.1793743 32.8894591,5.17526816 32.8688161,5.17526816 L32.8344896,5.17526816 L32.8344896,5.32907263 L32.7752736,5.32895531 M32.8340178,5.12540782 L32.9052658,5.12540782 C32.9393564,5.12540782 32.9623586,5.12036313 32.9746265,5.11027374 C32.9870123,5.10041899 32.9935001,5.08692737 32.9935001,5.07015084 C32.9935001,5.05947486 32.9905511,5.04985475 32.9846531,5.04175978 C32.9786371,5.03307821 32.970262,5.02686034 32.9595276,5.02251955 C32.9487932,5.01841341 32.9295657,5.01630168 32.9007833,5.01630168 L32.8341358,5.01630168 L32.8341358,5.12540782" id="text9407"></path>
                    </g>
                </g>
            </g>
        </g>
        <path d="M138.504077,11.981445 C138.499805,9.26184762 136.799878,6.94242839 134.404506,6.02387002 L134.404506,17.9385453 C136.799878,17.0188001 138.499805,14.7015171 138.504077,11.981445 L138.504077,11.981445 Z M129.834975,17.9361717 L129.834975,6.02505678 C127.441739,6.9464634 125.744423,9.26255968 125.738015,11.981445 C125.744423,14.6996182 127.441739,17.0154772 129.834975,17.9361717 L129.834975,17.9361717 Z M132.120927,1.91076975 C126.559258,1.91290593 122.053337,6.41977579 122.052388,11.981445 C122.053337,17.5424021 126.559258,22.0485599 132.120927,22.0495093 C137.682596,22.0485599 142.189466,17.5424021 142.19089,11.981445 C142.189466,6.41977579 137.682596,1.91290593 132.120927,1.91076975 L132.120927,1.91076975 Z M132.096242,22.9998731 C126.010259,23.0288302 121.001149,18.0982842 121.001149,12.0963241 C121.001149,5.53682046 126.010259,0.999806689 132.096242,1.00099346 L134.948283,1.00099346 C140.962348,0.999806689 146.45115,5.53468428 146.45115,12.0963241 C146.45115,18.096148 140.962348,22.9998731 134.948283,22.9998731 L132.096242,22.9998731 L132.096242,22.9998731 Z" id="Fill-43" fill="#174977" sketch:type="MSShapeGroup"></path>
    </g>
</svg>
