<svg xmlns="http://www.w3.org/2000/svg" width="132" height="42" viewBox="0 0 132 42">
	<path fill="#FFFFFF" d="M61.19 7.34v3.55h-7.29v20.44h-4.24v-20.44h-7.29v-3.55h18.82zm13.38 6.09v18.03h-3.86v-1.8c-.49.54-2.26 2.19-5.45 2.19-2.45 0-4.72-.84-6.38-2.37-1.82-1.68-2.79-4.04-2.79-6.83 0-6.98 5.5-9.51 9.19-9.51 2.94 0 4.39 1.08 5.23 1.89l.02.02c.1.1.17.16.23.16.04 0 .07-.04.12-.3l.11-.56.1-.49c.06-.3.27-.43.69-.43h2.79zm-9.4 14.94c3.58 0 5.71-2.31 5.71-6.17 0-1.54-.51-2.96-1.43-3.97-.97-1.07-2.3-1.63-3.85-1.63-3.5 0-5.76 2.33-5.76 5.94 0 2.81 1.4 5.83 5.33 5.83m22.55-14.81c-.2-.14-.94-.41-1.77-.41-1.33 0-3.79.27-5.34 2.09-.1.12-.17.17-.23.17-.02 0-.05-.03-.08-.17l-.17-.71-.15-.66c-.08-.31-.28-.43-.69-.43h-2.61v18.03h3.85v-9.94c0-3.31 1.61-4.92 4.93-4.92.2 0 .32.01.41.03l.08.01h.03l1.78-3.05-.04-.04zm6.69 16.68c5.71 0 8.36 1.6 8.36 5.03 0 3.64-3.67 6-9.34 6-4.93 0-7.99-1.89-7.99-4.92 0-1.72.86-3.05 2.55-3.95-1.23-.63-1.83-1.56-1.83-2.85 0-1.31.7-2.44 2.09-3.35-1.38-1.4-2.18-3.26-2.18-5.12 0-2.32.85-4.32 2.44-5.77 1.48-1.35 3.46-2.09 5.59-2.09 1.32 0 2.56.28 3.67.83 1.07-.6 2.34-.89 3.9-.89.83 0 1.62.13 2.18.36l.04.02-1.78 3.15h-.03c-.11-.02-.5-.08-.92-.08l-.49.02c.82 1.25 1.26 2.71 1.26 4.22 0 2.04-.75 3.94-2.11 5.35-1.47 1.53-3.5 2.33-5.86 2.33-1.2 0-2.34-.24-3.39-.71-.42.3-.63.68-.63 1.15.01 1.06 1.72 1.27 4.47 1.27m4.26 5.25c0-1.27-.99-1.69-4.61-1.98l-.58-.04c-.81-.06-1.65-.13-2.48-.24-.7.49-1.52 1.31-1.52 2.44 0 1.68 1.48 2.5 4.52 2.5 2.84-.01 4.67-1.06 4.67-2.68m-4.62-18.97c-2 0-4.06 1.63-4.06 4.37 0 2.61 1.59 4.43 3.87 4.43 1.22 0 4.07-.46 4.07-4.69 0-2.04-1.33-4.11-3.88-4.11m36.93.43v-3.5h-4.34v-5.1h-3.94v5.11h-2.1v3.5h2.1v9.35c0 3.71 1.94 5.51 5.93 5.51 1.07 0 1.88-.1 2.28-.29l.03-.01v-3.55l-.06.02c-.45.13-.88.22-1.85.22-1.72 0-2.39-.88-2.39-3.13v-8.11h4.34zm-18.95-3.82c4.23 0 9.01 3.46 8.26 10.21h-13.19c.29 3.66 2.47 5.18 5.06 5.18 2.85 0 3.93-1.71 4.42-2.73h3.77c-.22 2.36-3.06 6.01-8.63 6.01-5.09 0-8.61-4.18-8.61-9.16 0-7.1 5.18-9.51 8.92-9.51m4.25 7.11c-.17-1.87-1.57-3.87-4.18-3.87-2.05 0-4.11.95-4.79 3.87h8.97z"/>
	<path fill="#FFFFFF" d="M19.8.73c-10.32 0-18.68 8.36-18.68 18.67s8.36 18.68 18.68 18.68 18.67-8.36 18.67-18.68-8.36-18.67-18.67-18.67m0 30.81c-6.7 0-12.14-5.44-12.14-12.14s5.43-12.14 12.14-12.14 12.14 5.44 12.14 12.14c0 6.71-5.44 12.14-12.14 12.14m0-18.21c3.35 0 6.07 2.72 6.07 6.07s-2.72 6.07-6.07 6.07-6.07-2.72-6.07-6.07 2.72-6.07 6.07-6.07"/>
</svg>